<svg width="146" height="146" viewBox="0 0 146 146" fill="none" xmlns="http://www.w3.org/2000/svg">
<path d="M119.233 127.75L80.9083 89.425C77.8667 91.8583 74.3688 93.7847 70.4146 95.2042C66.4604 96.6236 62.2528 97.3333 57.7917 97.3333C46.7403 97.3333 37.3882 93.5049 29.7353 85.848C22.0825 78.1911 18.2541 68.839 18.25 57.7917C18.25 46.7403 22.0784 37.3882 29.7353 29.7353C37.3922 22.0825 46.7443 18.2541 57.7917 18.25C68.8431 18.25 78.1952 22.0784 85.848 29.7353C93.5008 37.3922 97.3293 46.7443 97.3333 57.7917C97.3333 62.2528 96.6236 66.4604 95.2042 70.4146C93.7847 74.3688 91.8583 77.8667 89.425 80.9083L127.75 119.233L119.233 127.75ZM57.7917 85.1667C65.3958 85.1667 71.8604 82.5042 77.1853 77.1793C82.5103 71.8543 85.1707 65.3918 85.1667 57.7917C85.1667 50.1875 82.5042 43.7229 77.1793 38.398C71.8543 33.0731 65.3918 30.4126 57.7917 30.4167C50.1875 30.4167 43.7229 33.0791 38.398 38.4041C33.0731 43.729 30.4126 50.1916 30.4167 57.7917C30.4167 65.3958 33.0791 71.8604 38.4041 77.1853C43.729 82.5103 50.1916 85.1707 57.7917 85.1667Z" fill="#F8F8F8"/>
</svg>
