<svg width="146" height="146" viewBox="0 0 146 146" fill="none" xmlns="http://www.w3.org/2000/svg">
<path d="M76.0418 139.917C73.507 139.917 71.3515 139.055 69.5752 137.331C67.7988 135.608 66.9127 133.479 66.9168 130.944C66.9168 129.727 67.1459 128.561 67.6042 127.446C68.0624 126.331 68.7458 125.367 69.6543 124.556L76.0418 118.625L82.4293 124.556C83.3418 125.367 84.0271 126.331 84.4854 127.446C84.9437 128.561 85.1708 129.727 85.1668 130.944C85.1668 133.479 84.2806 135.608 82.5083 137.331C80.7361 139.055 78.5805 139.917 76.0418 139.917ZM55.0543 130.792L48.6668 124.404L66.6126 106.458L73.0001 112.846L55.0543 130.792ZM94.2918 121.667L85.1668 112.542L94.2918 103.417L103.417 112.542L94.2918 121.667ZM39.5418 121.667L30.4168 112.542L39.5418 103.417L48.6668 112.542L39.5418 121.667ZM45.6251 97.3334C36.3987 97.3334 28.5147 94.0626 21.9731 87.5209C15.4315 80.9793 12.1627 73.0974 12.1668 63.875C12.1668 55.4597 14.9549 48.1091 20.5313 41.8229C26.1077 35.5368 33.0022 31.8361 41.2147 30.7209C44.4591 24.9417 48.8959 20.4035 54.525 17.1064C60.1541 13.8092 66.3125 12.1626 73.0001 12.1667C82.1251 12.1667 90.0598 15.0826 96.8042 20.9145C103.549 26.7464 107.628 34.0201 109.044 42.7354C116.04 43.3438 121.92 46.2334 126.686 51.4042C131.451 56.575 133.833 62.7598 133.833 69.9584C133.833 77.5625 131.173 84.0271 125.852 89.352C120.531 94.677 114.067 97.3374 106.458 97.3334H45.6251ZM45.6251 85.1667H106.458C110.717 85.1667 114.316 83.6966 117.256 80.7563C120.197 77.816 121.667 74.2167 121.667 69.9584C121.667 65.7 120.197 62.1007 117.256 59.1604C114.316 56.2202 110.717 54.75 106.458 54.75H97.3334V48.6667C97.3334 41.975 94.9508 36.2466 90.1855 31.4813C85.4202 26.716 79.6918 24.3334 73.0001 24.3334C68.1334 24.3334 63.6966 25.6514 59.6898 28.2875C55.6829 30.9236 52.6676 34.4723 50.6438 38.9334L49.123 42.5834H45.3209C39.5418 42.7861 34.6001 44.9417 30.4958 49.0499C26.3916 53.1582 24.3375 58.0999 24.3334 63.875C24.3334 69.7556 26.4119 74.7743 30.5688 78.9313C34.7258 83.0882 39.7445 85.1667 45.6251 85.1667Z" fill="#F8F8F8"/>
</svg>
